<svg class="svg-icon" style="width: 1em;height: 1em;vertical-align: middle;fill: currentColor;overflow: hidden;" viewBox="0 0 1024 1024" version="1.1" xmlns="http://www.w3.org/2000/svg"><path d="M31.992 728a480 160 0 1 0 960 0 480 160 0 1 0-960 0Z" fill="#F9A7A7" /><path d="M799.992 483.992c0-34.232 21.732-64.796 54.152-75.78 85.248-28.88 137.848-68.496 137.848-112.212 0-88.364-214.904-160-480-160s-480 71.636-480 160c0 43.716 52.6 83.332 137.848 112.212 32.42 10.984 54.152 41.548 54.152 75.78V740h-0.028c80.228 20.092 179.952 32 288.028 32s207.8-11.908 288.028-32h-0.028v-256.008z" fill="#E0EBFC" /><path d="M31.992 616a480 160 0 1 0 960 0 480 160 0 1 0-960 0Z" fill="#F9A7A7" /><path d="M31.992 568a480 160 0 1 0 960 0 480 160 0 1 0-960 0Z" fill="#F9CFCF" /><path d="M224.008 740.012l-0.016-0.012h-0.028zM271.992 634.752v-150.756c0-54.94-34.86-103.664-86.752-121.244C105.716 335.808 79.992 306.144 79.992 296c0-10.336 26.34-40.46 107.768-67.6C273.652 199.768 388.8 184 511.992 184s238.336 15.768 324.232 44.4c81.424 27.14 107.768 57.264 107.768 67.6 0 10.144-25.728 39.808-105.248 66.752-51.892 17.58-86.752 66.3-86.752 121.244v206.132c0 7.3 3.324 14.204 9.032 18.76l38.996 31.12-0.028-256.008c0-34.232 21.732-64.796 54.152-75.78 85.248-28.876 137.848-68.496 137.848-112.212 0-88.364-214.904-160-480-160s-480 71.636-480 160c0 43.716 52.6 83.332 137.848 112.212 32.42 10.984 54.152 41.552 54.152 75.78v256l38.4-28.8a23.996 23.996 0 0 0 9.6-19.2v-57.248z" fill="#F9A7A7" /><path d="M224.008 740.012l-0.016-0.012v0.008z" fill="#4671C6" /><path d="M223.964 740h0.028V483.992c0-34.232-21.732-64.796-54.152-75.78C84.592 379.332 31.992 339.716 31.992 296v436h0.152c3.732 50.712 78.252 95.572 191.864 124.016l-0.016-116.008-0.028-0.008zM799.992 740.012l0.016-0.012v0.008z" fill="#4671C6" /><path d="M800.036 740h-0.028V483.992c0-34.232 21.732-64.796 54.152-75.78 85.248-28.876 137.848-68.496 137.848-112.212v436h-0.152c-3.732 50.712-78.252 95.572-191.864 124.016l0.016-116.008 0.028-0.008z" fill="#4671C6" /><path d="M511.992 780c-105.48 0-205.748-11.148-289.972-32.24a8 8 0 0 1-6.028-8.42v-255.348c0-30.92-19.58-58.332-48.716-68.204C74.876 384.492 23.992 341.948 23.992 296c0-94.204 214.356-168 488-168s488 73.796 488 168c0 45.948-50.884 88.492-143.28 119.788-29.14 9.872-48.72 37.284-48.72 68.204v255.536a7.988 7.988 0 0 1-6.028 8.232c-84.224 21.092-184.492 32.24-289.972 32.24z m-280-46.26c81.7 19.808 178.348 30.26 280 30.26 101.652 0 198.3-10.456 280-30.26v-249.748c0-37.784 23.944-71.284 59.584-83.356 84.152-28.504 132.416-66.644 132.416-104.636 0-82.392-216.152-152-472-152s-472 69.608-472 152c0 37.992 48.264 76.128 132.416 104.636 35.64 12.076 59.584 45.572 59.584 83.356v249.748z" fill="#3762CC" /><path d="M224.008 748.016a7.956 7.956 0 0 1-2.844-0.52 8.008 8.008 0 1 1 2.844 0.52z" fill="#3762CC" /><path d="M224.008 864.016c-0.648 0-1.3-0.08-1.944-0.24-120.66-30.208-192.56-77.368-197.76-129.596a7.692 7.692 0 0 1-0.312-2.176V296a8 8 0 0 1 16 0c0 37.992 48.264 76.128 132.416 104.636 35.64 12.076 59.584 45.572 59.584 83.356v256.012l0.016 116.008a8 8 0 0 1-8 8.004z m-184.016-133.56c0.064 0.312 0.108 0.632 0.132 0.956 3.204 43.528 68.708 85.944 175.884 114.284l-0.016-105.216a8.256 8.256 0 0 1 0-0.944v-255.54c0-30.92-19.58-58.332-48.716-68.204-62.18-21.064-105.56-47.216-127.284-76.072v390.736zM800.004 748.008a8.04 8.04 0 0 1-5.068-1.808 7.996 7.996 0 0 1 0.9-13.028 8 8 0 0 1 12.156 6.28 8 8 0 0 1-7.988 8.556z" fill="#3762CC" /><path d="M799.992 864.016a8 8 0 0 1-8-8l0.016-116.008v-256.012c0-37.784 23.944-71.284 59.584-83.356 84.152-28.504 132.416-66.644 132.416-104.636a8 8 0 0 1 16 0v436c0 0.776-0.112 1.528-0.32 2.24-5.26 52.2-77.152 99.34-197.756 129.536a8.2 8.2 0 0 1-1.94 0.236z m8.016-123.52l-0.016 105.2c107.176-28.336 172.68-70.756 175.884-114.284a7.72 7.72 0 0 1 0.132-0.968V339.716c-21.724 28.856-65.1 55.008-127.284 76.072-29.14 9.872-48.716 37.284-48.716 68.204v255.532a7.88 7.88 0 0 1 0 0.972z" fill="#3762CC" /><path d="M511.992 776c-265.096 0-480-71.636-480-160v112c0 88.364 214.904 160 480 160s480-71.636 480-160v-112c0 88.364-214.904 160-480 160z" fill="#A4C9FF" /><path d="M511.992 896c-273.644 0-488-73.796-488-168v-112a8 8 0 0 1 16 0c0 82.392 216.152 152 472 152s472-69.608 472-152a8 8 0 0 1 16 0v112c0 94.204-214.356 168-488 168z m-472-236.336V728c0 82.392 216.152 152 472 152s472-69.608 472-152v-68.336C929.48 732.04 741.608 784 511.992 784s-417.492-51.96-472-124.336z" fill="#3762CC" /><path d="M224.004 748.012c-0.744 0-1.496-0.104-2.236-0.32l-0.048-0.012a8 8 0 0 1 2.244-15.68 8.016 8.016 0 0 1 7.252 11.464 8.008 8.008 0 0 1-7.212 4.548z" fill="#3762CC" /><path d="M800.02 748c-1.78 0-3.548-0.592-4.992-1.748l-38.996-31.116a31.84 31.84 0 0 1-12.04-25.012v-206.132c0-58.372 37.048-110.14 92.184-128.82 79.66-26.988 99.26-54.928 99.82-59.312-0.552-4.204-20.548-32.624-102.304-59.876C748.588 207.62 634.336 192 511.992 192s-236.596 15.62-321.704 43.988C108.532 263.24 88.536 291.66 87.984 296.128c0.56 4.12 20.164 32.06 99.824 59.048 55.14 18.676 92.184 70.448 92.184 128.82V692a32.148 32.148 0 0 1-12.8 25.6l-38.4 28.8a8.008 8.008 0 0 1-12.8-6.4v-256.008c0-30.92-19.58-58.332-48.716-68.204C74.876 384.492 23.992 341.948 23.992 296c0-94.204 214.356-168 488-168s488 73.796 488 168c0 45.948-50.884 88.492-143.28 119.788-29.14 9.872-48.72 37.284-48.72 68.204l0.024 256.008a8 8 0 0 1-7.996 8zM511.992 144c-255.848 0-472 69.608-472 152 0 37.992 48.264 76.128 132.416 104.636 35.64 12.076 59.584 45.572 59.584 83.356V724l25.6-19.2a16.068 16.068 0 0 0 6.4-12.8v-208.008c0-51.508-32.68-97.188-81.316-113.668C106.628 344.564 71.992 313.74 71.992 296c0-18.036 35.436-49.256 113.24-75.192C271.92 191.916 387.968 176 511.992 176s240.068 15.916 326.76 44.808c77.804 25.932 113.24 57.156 113.24 75.192 0 17.74-34.636 48.564-110.68 74.328-48.64 16.48-81.32 62.156-81.32 113.668v206.132c0 4.896 2.196 9.452 6.02 12.508l26.004 20.752-0.024-239.388c0-37.784 23.944-71.284 59.584-83.356 84.152-28.504 132.416-66.644 132.416-104.636 0-82.4-216.152-152.008-472-152.008z" fill="#3762CC" /><path d="M440.504 304.356a22.4 22.4 0 0 1-22.4-22.4v-12.8a22.4 22.4 0 1 1 44.8 0v12.8a22.4 22.4 0 0 1-22.4 22.4z" fill="#4671C6" /><path d="M583.476 304.356a22.4 22.4 0 0 0 22.4-22.4v-12.8a22.4 22.4 0 1 0-44.8 0v12.8a22.4 22.4 0 0 0 22.4 22.4z" fill="#4671C6" /><path d="M483.376 263.12a22.4 22.4 0 0 1-22.4-22.4v-12.8a22.4 22.4 0 1 1 44.8 0v12.8a22.4 22.4 0 0 1-22.4 22.4z" fill="#4671C6" /><path d="M539.396 263.12a22.4 22.4 0 0 0 22.4-22.4v-12.8a22.4 22.4 0 1 0-44.8 0v12.8a22.4 22.4 0 0 0 22.4 22.4z" fill="#4671C6" /><path d="M556 307.236c-1.984-0.496-3.36-2.176-3.36-4.096 0-20.984-18.2-37.996-40.648-37.996-22.448 0-40.648 17.012-40.648 37.996 0 1.92-1.376 3.6-3.36 4.096-17.136 4.28-29.76 18.884-29.76 36.248v0.928c0 20.728 17.976 37.532 40.152 37.532h67.232c22.176 0 40.152-16.804 40.152-37.532v-0.928c0-17.364-12.624-31.964-29.76-36.248z" fill="#4671C6" /></svg>